<svg xmlns="http://www.w3.org/2000/svg" xmlns:xlink="http://www.w3.org/1999/xlink" width="800px" height="400px" version="1.1" overflow="visible">
	<desc>Engraved by Verovio 1.1.6-[undefined]</desc>
	<defs>
		<symbol id="E050" viewBox="0 0 1000 1000" overflow="inherit">
			<path transform="scale(1,-1)" d="M441 -245c-23 -4 -48 -6 -76 -6c-59 0 -102 7 -130 20c-88 42 -150 93 -187 154c-26 44 -43 103 -48 176c-4 60 11 123 44 189c29 57 65 106 110 148s96 85 153 127c-3 16 -8 46 -13 92c-4 43 -5 73 -5 89c0 117 16 172 69 257c34 54 64 82 89 82c21 0 43 -30 69 -92 s39 -115 41 -159c2 -120 -19 -173 -67 -256c-13 -20 -63 -90 -98 -118c-13 -9 -25 -19 -37 -29l31 -181c8 1 18 2 28 2c58 0 102 -12 133 -35c59 -43 92 -104 98 -184c11 -135 -80 -229 -180 -270c8 -57 17 -110 25 -162c5 -31 6 -58 6 -80c0 -30 -5 -53 -14 -70 c-35 -64 -88 -99 -158 -103c-42 -3 -83 6 -124 26c-50 24 -77 59 -80 105c-2 34 5 63 20 87c18 28 45 42 79 44c51 4 99 -40 103 -87c4 -56 -30 -94 -105 -115c17 -24 51 -36 102 -36c62 0 116 43 140 85c9 16 13 41 13 74c0 20 -1 42 -5 67c-8 53 -18 106 -26 159zM461 939 c-95 0 -135 -175 -135 -286c0 -24 2 -48 5 -71c50 39 92 82 127 128c43 57 63 106 60 148c-4 54 -23 82 -57 81zM406 119l54 -326c80 27 116 88 109 184c-7 99 -62 146 -163 142zM382 117c-74 -2 -132 -50 -128 -127c2 -46 43 -99 75 -115c-3 -2 -7 -5 -10 -10 c-70 33 -116 88 -123 172c-5 73 42 135 88 170c23 17 49 29 78 36l-29 170c-21 -13 -52 -37 -92 -73c-50 -44 -86 -84 -109 -119c-49 -75 -71 -140 -67 -195c5 -68 35 -127 93 -176s125 -73 203 -73c25 0 50 3 75 9c-19 111 -36 221 -54 331z"/>
		</symbol>
		<symbol id="E084" viewBox="0 0 1000 1000" overflow="inherit">
			<path transform="scale(1,-1)" d="M0 -78c84 97 114 180 134 329h170c-13 -32 -82 -132 -99 -151l-84 -97c-33 -36 -59 -63 -80 -81h162v102l127 123v-225h57v-39h-57v-34c0 -43 19 -65 57 -65v-34h-244v36c48 0 60 26 60 70v27h-203v39z"/>
		</symbol>
		<symbol id="E0A4" viewBox="0 0 1000 1000" overflow="inherit">
			<path transform="scale(1,-1)" d="M0 -39c0 68 73 172 200 172c66 0 114 -37 114 -95c0 -84 -106 -171 -218 -171c-64 0 -96 30 -96 94z"/>
		</symbol>
		<symbol id="E240" viewBox="0 0 1000 1000" overflow="inherit">
			<path transform="scale(1,-1)" d="M179 -646c15 29 28.5449 55.0752 46 102c18.3213 49.2549 30 108.298 30 138c0 105 -80 173 -168 200c-18 5 -47 9 -87 16v190h22c8 0 33 -61 71 -95c4 -3 -2 3 61 -56c62 -58 122 -137 122 -241c0 -37.5245 -12.6807 -106.071 -35 -163 c-19.9111 -50.7861 -43 -99 -66 -132c-6 -5 -10 -7 -13 -7s-5 2 -5 5l4 10c1.17241 2.93103 13.7644 24.8111 18 33z"/>
		</symbol>
		<symbol id="E0A3" viewBox="0 0 1000 1000" overflow="inherit">
			<path transform="scale(1,-1)" d="M98 -102zM200 138l41 -5c-2 0 -41 5 -41 5zM278 64c0 22 -17 39 -43 39c-12 0 -26 -3 -41 -10c-85 -43 -165 -94 -165 -156c5 -25 15 -32 49 -32c67 11 200 95 200 159zM0 -36c0 68 73 174 200 174c66 0 114 -39 114 -97c0 -84 -106 -173 -218 -173c-64 0 -96 32 -96 96z "/>
		</symbol>
		<symbol id="E885" viewBox="0 0 1000 1000" overflow="inherit">
			<path transform="scale(1,-1)" d="M84 0c-49 0 -84 18 -84 66l1 14c2 5 4 9 7 14c7 7 16 11 27 14c7 0 13 -3 19 -9l4 -9l2 -11l-4 -13c-3 -5 -3 -6 -8 -11l-7 -16c0 -8 3 -13 10 -16l13 -4h15c22 0 42 15 59 45c15 27 23 52 23 75l-3 13c-2 8 -13 17 -21 20l-15 4l-17 -1l-16 -3l-17 -10l-23 -18h-21 l62 182c9 -3 25 -6 35 -9l33 -3h10l23 3l49 9c-19 -27 -53 -58 -89 -58h-10l-22 2c-9 3 -17 7 -26 11l-36 -108l18 12l20 9l22 5l26 3c9 0 19 -1 30 -5c14 -5 14 -6 24 -17c14 -15 22 -33 22 -58c0 -32 -13 -62 -41 -87c-28 -24 -60 -35 -94 -35z"/>
		</symbol>
	</defs>
	<style type="text/css">g.page-margin{font-family:Times;} g.tempo{font-weight:bold;} g.dir, g.dynam {font-style:italic;}</style>
	<svg class="definition-scale" viewBox="0 0 20000 10000">
		<g class="page-margin" transform="translate(500, 500)">
			<g class="system" id="system-0000001926161189">
				<text x="1218" y="1850" text-anchor="end" font-size="0px">
					<tspan font-size="405px" class="text">&#160;     </tspan>
				</text>
				<g class="section boundaryStart" id="section-0000001431336535"/>
				<g class="pb" id="pb-0000001094648806"/>
				<g class="measure" id="measure-0000000049706249">
					<g class="staff" id="staff-0000001498071177">
						<path d="M1488 1400 L7063 1400" stroke="#000000" stroke-width="20"/>
						<path d="M1488 1580 L7063 1580" stroke="#000000" stroke-width="20"/>
						<path d="M1488 1760 L7063 1760" stroke="#000000" stroke-width="20"/>
						<path d="M1488 1940 L7063 1940" stroke="#000000" stroke-width="20"/>
						<path d="M1488 2120 L7063 2120" stroke="#000000" stroke-width="20"/>
						<g class="clef" id="clef-0000001324566472">
							<use xlink:href="#E050" x="1578" y="1940" height="720px" width="720px"/>
						</g>
						<g class="meterSig" id="msig-0000000252809806">
							<use xlink:href="#E084" x="2223" y="1580" height="720px" width="720px"/>
							<use xlink:href="#E084" x="2223" y="1940" height="720px" width="720px"/>
						</g>
						<g class="layer" id="layer-0000002142653200">
							<g class="note" id="note-0000001125399926" fill="#000000">
								<use xlink:href="#E0A4" x="2833" y="1850" height="720px" width="720px"/>
								<g class="stem" id="stem-0000001634339949">
									<rect x="3039" y="1220" height="608" width="20"/>
								</g>
							</g>
							<g class="beam" id="beam-0000000105975750">
								<polygon points="3874,1220 4438,1275 4438,1365 3874,1310 "/>
								<g class="note" id="note-0000000409252813" fill="#000000">
									<use xlink:href="#E0A4" x="3668" y="1850" height="720px" width="720px"/>
									<g class="stem" id="stem-0000000968600163">
										<rect x="3874" y="1240" height="588" width="20"/>
									</g>
								</g>
								<g class="note" id="note-0000001088391011" fill="#000000">
									<use xlink:href="#E0A4" x="4212" y="1940" height="720px" width="720px"/>
									<g class="stem" id="stem-0000001648529623">
										<rect x="4418" y="1295" height="623" width="20"/>
									</g>
								</g>
							</g>
							<g class="beam" id="beam-0000001697387837">
								<polygon points="4963,996 6616,1131 6616,1221 4963,1086 "/>
								<g class="note" id="note-0000000470194978" fill="#000000">
									<use xlink:href="#E0A4" x="4757" y="1850" height="720px" width="720px"/>
									<g class="stem" id="stem-0000001396515945">
										<rect x="4963" y="1016" height="812" width="20"/>
									</g>
								</g>
								<g class="note" id="note-0000001093679339" fill="#000000">
									<use xlink:href="#E0A4" x="5301" y="1670" height="720px" width="720px"/>
									<g class="stem" id="stem-0000000191998491">
										<rect x="5507" y="1060" height="588" width="20"/>
									</g>
								</g>
								<g class="note" id="note-0000000597688210" fill="#000000">
									<use xlink:href="#E0A4" x="5846" y="1850" height="720px" width="720px"/>
									<g class="stem" id="stem-0000001768600839">
										<rect x="6052" y="1106" height="722" width="20"/>
									</g>
								</g>
								<g class="note" id="note-0000001240633417" fill="#000000">
									<use xlink:href="#E0A4" x="6390" y="1940" height="720px" width="720px"/>
									<g class="stem" id="stem-0000000648844462">
										<rect x="6596" y="1151" height="767" width="20"/>
									</g>
								</g>
							</g>
						</g>
					</g>
					<g class="tempo" id="tempo-0000000100962319">
						<text x="2223" y="1087" font-size="0px">
							<tspan font-size="405px" class="text">Adagio</tspan>
						</text>
					</g>
					<g class="slur" id="slur-0000001592620580" fill="#000000">
						<path d="M2946,2008 C3645,2382 8603,2661 9341,2368 C8600,2714 3642,2435 2946,2008" stroke="#000000" stroke-linecap="round" stroke-linejoin="round" stroke-width="10"/>
					</g>
					<g class="barLineAttr" id="bline-0000000627994390">
						<path d="M7048 1400 L7048 2120" stroke="#000000" stroke-width="30"/>
					</g>
				</g>
				<g class="measure" id="measure-0000001928057737">
					<g class="staff" id="staff-0000001714438441">
						<path d="M7063 1400 L10966 1400" stroke="#000000" stroke-width="20"/>
						<path d="M7063 1580 L10966 1580" stroke="#000000" stroke-width="20"/>
						<path d="M7063 1760 L10966 1760" stroke="#000000" stroke-width="20"/>
						<path d="M7063 1940 L10966 1940" stroke="#000000" stroke-width="20"/>
						<path d="M7063 2120 L10966 2120" stroke="#000000" stroke-width="20"/>
						<g class="layer" id="layer-0000000609823660">
							<g class="note" id="note-0000001941866197" fill="#000000">
								<use xlink:href="#E0A4" x="7305" y="2120" height="720px" width="720px"/>
								<g class="stem" id="stem-0000001516734466">
									<rect x="7511" y="1490" height="608" width="20"/>
								</g>
							</g>
							<g class="beam" id="beam-0000001307795354">
								<polygon points="8346,1310 8910,1365 8910,1455 8346,1400 "/>
								<g class="note" id="note-0000000420115680" fill="#000000">
									<use xlink:href="#E0A4" x="8140" y="1940" height="720px" width="720px"/>
									<g class="stem" id="stem-0000000165290114">
										<rect x="8346" y="1330" height="588" width="20"/>
									</g>
								</g>
								<g class="note" id="note-0000001074231685" fill="#000000">
									<use xlink:href="#E0A4" x="8684" y="2120" height="720px" width="720px"/>
									<g class="stem" id="stem-0000000036349063">
										<rect x="8890" y="1385" height="713" width="20"/>
									</g>
								</g>
							</g>
							<g class="note" id="note-0000001408757674" fill="#000000">
								<use xlink:href="#E0A4" x="9229" y="2210" height="720px" width="720px"/>
								<g class="dots" id="dots-0000001287481746">
									<ellipse cx="9545" cy="2210" rx="36" ry="36"/>
								</g>
								<g class="stem" id="stem-0000001167509694">
									<rect x="9435" y="1580" height="608" width="20"/>
								</g>
							</g>
							<g class="note" id="note-0000002061448566" fill="#000000">
								<use xlink:href="#E0A4" x="10294" y="2120" height="720px" width="720px"/>
								<g class="stem" id="stem-0000002141187649">
									<rect x="10500" y="1490" height="608" width="20"/>
									<g class="flag" id="flag-0000001966034063">
										<use xlink:href="#E240" x="10500" y="1490" height="720px" width="720px"/>
									</g>
								</g>
							</g>
						</g>
					</g>
					<g class="slur" id="slur-0000001069401237" fill="#000000">
						<path d="M10407,2278 C11109,2647 16980,2937 17716,2638 C16977,2990 11106,2700 10407,2278" stroke="#000000" stroke-linecap="round" stroke-linejoin="round" stroke-width="10"/>
					</g>
					<g class="barLineAttr" id="bline-0000001946707576">
						<path d="M10951 1400 L10951 2120" stroke="#000000" stroke-width="30"/>
					</g>
				</g>
				<g class="measure" id="measure-0000000386673952">
					<g class="staff" id="staff-0000000359271513">
						<path d="M10966 1400 L15438 1400" stroke="#000000" stroke-width="20"/>
						<path d="M10966 1580 L15438 1580" stroke="#000000" stroke-width="20"/>
						<path d="M10966 1760 L15438 1760" stroke="#000000" stroke-width="20"/>
						<path d="M10966 1940 L15438 1940" stroke="#000000" stroke-width="20"/>
						<path d="M10966 2120 L15438 2120" stroke="#000000" stroke-width="20"/>
						<g class="ledgerLines below">
							<path d="M14186 2300 L14472 2300" stroke="#000000" stroke-width="35"/>
							<path d="M14730 2300 L15016 2300" stroke="#000000" stroke-width="35"/>
						</g>
						<g class="layer" id="layer-0000001321746290">
							<g class="note" id="note-0000001970363847" fill="#000000">
								<use xlink:href="#E0A4" x="11208" y="1940" height="720px" width="720px"/>
								<g class="stem" id="stem-0000001735231880">
									<rect x="11414" y="1310" height="608" width="20"/>
								</g>
							</g>
							<g class="beam" id="beam-0000000710208094">
								<polygon points="12249,1310 12813,1365 12813,1455 12249,1400 "/>
								<g class="note" id="note-0000001999770116" fill="#000000">
									<use xlink:href="#E0A4" x="12043" y="1940" height="720px" width="720px"/>
									<g class="stem" id="stem-0000000966312427">
										<rect x="12249" y="1330" height="588" width="20"/>
									</g>
								</g>
								<g class="note" id="note-0000000539057304" fill="#000000">
									<use xlink:href="#E0A4" x="12587" y="2120" height="720px" width="720px"/>
									<g class="stem" id="stem-0000000525903761">
										<rect x="12793" y="1385" height="713" width="20"/>
									</g>
								</g>
							</g>
							<g class="beam" id="beam-0000001557425485">
								<polygon points="13338,1436 14991,1599 14991,1689 13338,1526 "/>
								<g class="note" id="note-0000001566724909" fill="#000000">
									<use xlink:href="#E0A4" x="13132" y="2210" height="720px" width="720px"/>
									<g class="stem" id="stem-0000000202728855">
										<rect x="13338" y="1456" height="732" width="20"/>
									</g>
								</g>
								<g class="note" id="note-0000001148880964" fill="#000000">
									<use xlink:href="#E0A4" x="13676" y="2120" height="720px" width="720px"/>
									<g class="stem" id="stem-0000000035520909">
										<rect x="13882" y="1510" height="588" width="20"/>
									</g>
								</g>
								<g class="note" id="note-0000001351808034" fill="#000000">
									<use xlink:href="#E0A4" x="14221" y="2300" height="720px" width="720px"/>
									<g class="stem" id="stem-0000001141641718">
										<rect x="14427" y="1565" height="713" width="20"/>
									</g>
								</g>
								<g class="note" id="note-0000001222629202" fill="#000000">
									<use xlink:href="#E0A4" x="14765" y="2390" height="720px" width="720px"/>
									<g class="stem" id="stem-0000001053099990">
										<rect x="14971" y="1619" height="749" width="20"/>
									</g>
								</g>
							</g>
						</g>
					</g>
					<g class="barLineAttr" id="bline-0000000094804898">
						<path d="M15423 1400 L15423 2120" stroke="#000000" stroke-width="30"/>
					</g>
				</g>
				<g class="measure" id="measure-0000000138564435">
					<g class="staff" id="staff-0000001979230533">
						<path d="M15438 1400 L19002 1400" stroke="#000000" stroke-width="20"/>
						<path d="M15438 1580 L19002 1580" stroke="#000000" stroke-width="20"/>
						<path d="M15438 1760 L19002 1760" stroke="#000000" stroke-width="20"/>
						<path d="M15438 1940 L19002 1940" stroke="#000000" stroke-width="20"/>
						<path d="M15438 2120 L19002 2120" stroke="#000000" stroke-width="20"/>
						<g class="ledgerLines below">
							<path d="M15630 2300 L15956 2300" stroke="#000000" stroke-width="35"/>
							<path d="M16480 2300 L16766 2300" stroke="#000000" stroke-width="35"/>
							<path d="M17024 2300 L17310 2300" stroke="#000000" stroke-width="35"/>
							<path d="M17554 2300 L17880 2300" stroke="#000000" stroke-width="35"/>
							<path d="M15630 2480 L15956 2480" stroke="#000000" stroke-width="35"/>
							<path d="M17554 2480 L17880 2480" stroke="#000000" stroke-width="35"/>
						</g>
						<g class="layer" id="layer-0000000636009379">
							<g class="note" id="note-0000000826815651" fill="#000000">
								<use xlink:href="#E0A4" x="15680" y="2480" height="720px" width="720px"/>
								<g class="stem" id="stem-0000001130205760">
									<rect x="15886" y="1760" height="698" width="20"/>
								</g>
							</g>
							<g class="beam" id="beam-0000000279239747">
								<polygon points="16721,1670 17285,1725 17285,1815 16721,1760 "/>
								<g class="note" id="note-0000001361290556" fill="#000000">
									<use xlink:href="#E0A4" x="16515" y="2300" height="720px" width="720px"/>
									<g class="stem" id="stem-0000001200253585">
										<rect x="16721" y="1690" height="588" width="20"/>
									</g>
								</g>
								<g class="note" id="note-0000002092937395" fill="#000000">
									<use xlink:href="#E0A4" x="17059" y="2390" height="720px" width="720px"/>
									<g class="stem" id="stem-0000001107378087">
										<rect x="17265" y="1745" height="623" width="20"/>
									</g>
								</g>
							</g>
							<g class="note" id="note-0000001820411948" fill="#000000">
								<use xlink:href="#E0A3" x="17604" y="2480" height="720px" width="720px"/>
								<g class="stem" id="stem-0000001833791095">
									<rect x="17810" y="1760" height="698" width="20"/>
								</g>
							</g>
						</g>
					</g>
					<g class="barLineAttr" id="bline-0000001890704754">
						<path d="M18987 1400 L18987 2120" stroke="#000000" stroke-width="30"/>
					</g>
				</g>
			</g>
			<g class="system" id="system-0000000046032951">
				<use xlink:href="#E885" x="0" y="3920" height="720px" width="720px"/>
				<g class="sb" id="sb-0000000641459747"/>
				<g class="measure" id="measure-0000000536776296">
					<g class="staff" id="staff-0000000178534972">
						<path d="M0 4460 L5135 4460" stroke="#000000" stroke-width="20"/>
						<path d="M0 4640 L5135 4640" stroke="#000000" stroke-width="20"/>
						<path d="M0 4820 L5135 4820" stroke="#000000" stroke-width="20"/>
						<path d="M0 5000 L5135 5000" stroke="#000000" stroke-width="20"/>
						<path d="M0 5180 L5135 5180" stroke="#000000" stroke-width="20"/>
						<g class="clef" id="clef-0000001324566472">
							<use xlink:href="#E050" x="90" y="5000" height="720px" width="720px"/>
						</g>
						<g class="layer" id="layer-0000000116332074">
							<g class="note" id="note-0000001465980371" fill="#000000" visibility="hidden">
								<use xlink:href="#E0A4" x="935" y="5270" height="720px" width="720px"/>
								<g class="dots" id="dots-0000000564632643">
									<ellipse cx="1251" cy="5270" rx="36" ry="36"/>
								</g>
								<g class="stem" id="stem-0000001811666824">
									<rect x="1141" y="4640" height="608" width="20"/>
								</g>
							</g>
							<g class="note" id="note-0000000143487917" fill="#000000" visibility="hidden">
								<use xlink:href="#E0A4" x="2144" y="5180" height="720px" width="720px"/>
								<g class="stem" id="stem-0000001517583232">
									<rect x="2350" y="4550" height="608" width="20"/>
									<g class="flag" id="flag-0000000144465754">
										<use xlink:href="#E240" x="2350" y="4550" height="720px" width="720px"/>
									</g>
								</g>
							</g>
							<g class="note" id="note-0000000133736804" fill="#000000">
								<use xlink:href="#E0A4" x="2822" y="4910" height="720px" width="720px"/>
								<g class="stem" id="stem-0000000974375083">
									<rect x="3028" y="4280" height="608" width="20"/>
								</g>
							</g>
							<g class="beam" id="beam-0000001843690678">
								<polygon points="3976,4280 4615,4342 4615,4432 3976,4370 "/>
								<g class="note" id="note-0000001251371462" fill="#000000">
									<use xlink:href="#E0A4" x="3770" y="4910" height="720px" width="720px"/>
									<g class="stem" id="stem-0000001128599456">
										<rect x="3976" y="4300" height="588" width="20"/>
									</g>
								</g>
								<g class="note" id="note-0000001128411395" fill="#000000">
									<use xlink:href="#E0A4" x="4389" y="5000" height="720px" width="720px"/>
									<g class="stem" id="stem-0000000504098729">
										<rect x="4595" y="4362" height="616" width="20"/>
									</g>
								</g>
							</g>
						<rect id="box" x="835" y="4450" width="1309" height="820" stroke="red" fill="none" stroke-width="80"/></g>
					</g>
					<g class="slur" id="slur-0000001457750899" fill="#000000">
						<path d="M1048,5551 C1787,6041 7309,5819 8009,5272 C7312,5872 1790,6094 1048,5551" stroke="#000000" stroke-linecap="round" stroke-linejoin="round" stroke-width="10"/>
					</g>
					<g class="barLineAttr" id="bline-0000000746928698">
						<path d="M5120 4460 L5120 5180" stroke="#000000" stroke-width="30"/>
					</g>
				</g>
				<g class="measure" id="measure-0000000055863525">
					<g class="staff" id="staff-0000001201292101">
						<path d="M5135 4460 L9853 4460" stroke="#000000" stroke-width="20"/>
						<path d="M5135 4640 L9853 4640" stroke="#000000" stroke-width="20"/>
						<path d="M5135 4820 L9853 4820" stroke="#000000" stroke-width="20"/>
						<path d="M5135 5000 L9853 5000" stroke="#000000" stroke-width="20"/>
						<path d="M5135 5180 L9853 5180" stroke="#000000" stroke-width="20"/>
						<g class="layer" id="layer-0000001343959422">
							<g class="beam" id="beam-0000001382566743">
								<polygon points="5631,4344 7506,4425 7506,4515 5631,4434 "/>
								<g class="note" id="note-0000000519788824" fill="#000000">
									<use xlink:href="#E0A4" x="5425" y="5180" height="720px" width="720px"/>
									<g class="stem" id="stem-0000000098926930">
										<rect x="5631" y="4364" height="794" width="20"/>
									</g>
								</g>
								<g class="note" id="note-0000000654226673" fill="#000000">
									<use xlink:href="#E0A4" x="6043" y="5000" height="720px" width="720px"/>
									<g class="stem" id="stem-0000001352453709">
										<rect x="6249" y="4390" height="588" width="20"/>
									</g>
								</g>
								<g class="note" id="note-0000001881839725" fill="#000000">
									<use xlink:href="#E0A4" x="6661" y="5270" height="720px" width="720px"/>
									<g class="stem" id="stem-0000001901860733">
										<rect x="6867" y="4417" height="831" width="20"/>
									</g>
								</g>
								<g class="note" id="note-0000000396965663" fill="#000000" visibility="hidden">
									<use xlink:href="#E0A4" x="7280" y="5180" height="720px" width="720px"/>
									<g class="stem" id="stem-0000000210638970">
										<rect x="7486" y="4445" height="713" width="20"/>
									</g>
								</g>
							<rect id="box" x="7180" y="4000" width="718" height="1180" stroke="red" fill="none" stroke-width="80"/></g>
							<g class="note" id="note-0000001960306822" fill="#000000" visibility="hidden">
								<use xlink:href="#E0A4" x="7898" y="4730" height="720px" width="720px"/>
								<g class="dots" id="dots-0000001437736342">
									<ellipse cx="8214" cy="4730" rx="36" ry="36"/>
								</g>
								<g class="stem" id="stem-0000000383834822">
									<rect x="8104" y="4100" height="608" width="20"/>
								</g>
							</g>
							<g class="note" id="note-0000000052220798" fill="#000000">
								<use xlink:href="#E0A4" x="9107" y="5270" height="720px" width="720px"/>
								<g class="stem" id="stem-0000000275022803">
									<rect x="9313" y="4640" height="608" width="20"/>
									<g class="flag" id="flag-0000000732364184">
										<use xlink:href="#E240" x="9313" y="4640" height="720px" width="720px"/>
									</g>
								</g>
							</g>
						</g>
					</g>
					<g class="slur" id="slur-0000000928356293" fill="#000000">
						<path d="M9220,5428 C9927,5786 16783,6009 17514,5698 C16782,6062 9926,5839 9220,5428" stroke="#000000" stroke-linecap="round" stroke-linejoin="round" stroke-width="10"/>
					</g>
					<g class="barLineAttr" id="bline-0000001107965848">
						<path d="M9838 4460 L9838 5180" stroke="#000000" stroke-width="30"/>
					</g>
				</g>
				<g class="measure" id="measure-0000001905930648">
					<g class="staff" id="staff-0000000817431939">
						<path d="M9853 4460 L14928 4460" stroke="#000000" stroke-width="20"/>
						<path d="M9853 4640 L14928 4640" stroke="#000000" stroke-width="20"/>
						<path d="M9853 4820 L14928 4820" stroke="#000000" stroke-width="20"/>
						<path d="M9853 5000 L14928 5000" stroke="#000000" stroke-width="20"/>
						<path d="M9853 5180 L14928 5180" stroke="#000000" stroke-width="20"/>
						<g class="ledgerLines below">
							<path d="M13529 5360 L13815 5360" stroke="#000000" stroke-width="35"/>
							<path d="M14147 5360 L14433 5360" stroke="#000000" stroke-width="35"/>
						</g>
						<g class="layer" id="layer-0000000729144899">
							<g class="note" id="note-0000001254415887" fill="#000000">
								<use xlink:href="#E0A4" x="10143" y="5000" height="720px" width="720px"/>
								<g class="stem" id="stem-0000001146071776">
									<rect x="10349" y="4370" height="608" width="20"/>
								</g>
							</g>
							<g class="beam" id="beam-0000000512773132">
								<polygon points="11297,4370 11935,4432 11935,4522 11297,4460 "/>
								<g class="note" id="note-0000001585860440" fill="#000000">
									<use xlink:href="#E0A4" x="11091" y="5000" height="720px" width="720px"/>
									<g class="stem" id="stem-0000001231557425">
										<rect x="11297" y="4390" height="588" width="20"/>
									</g>
								</g>
								<g class="note" id="note-0000000598215057" fill="#000000">
									<use xlink:href="#E0A4" x="11709" y="5180" height="720px" width="720px"/>
									<g class="stem" id="stem-0000001207560298">
										<rect x="11915" y="4452" height="706" width="20"/>
									</g>
								</g>
							</g>
							<g class="beam" id="beam-0000001587941399">
								<polygon points="12533,4489 14408,4674 14408,4764 12533,4579 "/>
								<g class="note" id="note-0000000133027855" fill="#000000">
									<use xlink:href="#E0A4" x="12327" y="5270" height="720px" width="720px"/>
									<g class="stem" id="stem-0000000676816023">
										<rect x="12533" y="4509" height="739" width="20"/>
									</g>
								</g>
								<g class="note" id="note-0000001980781800" fill="#000000">
									<use xlink:href="#E0A4" x="12945" y="5180" height="720px" width="720px"/>
									<g class="stem" id="stem-0000001363267898">
										<rect x="13151" y="4570" height="588" width="20"/>
									</g>
								</g>
								<g class="note" id="note-0000002107730224" fill="#000000">
									<use xlink:href="#E0A4" x="13564" y="5360" height="720px" width="720px"/>
									<g class="stem" id="stem-0000000768925340">
										<rect x="13770" y="4632" height="706" width="20"/>
									</g>
								</g>
								<g class="note" id="note-0000000787254528" fill="#000000">
									<use xlink:href="#E0A4" x="14182" y="5450" height="720px" width="720px"/>
									<g class="stem" id="stem-0000001048873976">
										<rect x="14388" y="4694" height="734" width="20"/>
									</g>
								</g>
							</g>
						</g>
					</g>
					<g class="barLineAttr" id="bline-0000001290170468">
						<path d="M14913 4460 L14913 5180" stroke="#000000" stroke-width="30"/>
					</g>
				</g>
				<g class="measure" id="measure-0000001715137877">
					<g class="staff" id="staff-0000000551132275">
						<path d="M14928 4460 L19003 4460" stroke="#000000" stroke-width="20"/>
						<path d="M14928 4640 L19003 4640" stroke="#000000" stroke-width="20"/>
						<path d="M14928 4820 L19003 4820" stroke="#000000" stroke-width="20"/>
						<path d="M14928 5000 L19003 5000" stroke="#000000" stroke-width="20"/>
						<path d="M14928 5180 L19003 5180" stroke="#000000" stroke-width="20"/>
						<g class="ledgerLines below">
							<path d="M15168 5360 L15494 5360" stroke="#000000" stroke-width="35"/>
							<path d="M16131 5360 L16417 5360" stroke="#000000" stroke-width="35"/>
							<path d="M16749 5360 L17035 5360" stroke="#000000" stroke-width="35"/>
							<path d="M17352 5360 L17678 5360" stroke="#000000" stroke-width="35"/>
							<path d="M15168 5540 L15494 5540" stroke="#000000" stroke-width="35"/>
							<path d="M17352 5540 L17678 5540" stroke="#000000" stroke-width="35"/>
						</g>
						<g class="layer" id="layer-0000001274037217">
							<g class="note" id="note-0000001927094814" fill="#000000">
								<use xlink:href="#E0A4" x="15218" y="5540" height="720px" width="720px"/>
								<g class="stem" id="stem-0000000666988515">
									<rect x="15424" y="4820" height="698" width="20"/>
								</g>
							</g>
							<g class="beam" id="beam-0000000403708082">
								<polygon points="16372,4730 17010,4792 17010,4882 16372,4820 "/>
								<g class="note" id="note-0000000649455171" fill="#000000">
									<use xlink:href="#E0A4" x="16166" y="5360" height="720px" width="720px"/>
									<g class="stem" id="stem-0000000735333129">
										<rect x="16372" y="4750" height="588" width="20"/>
									</g>
								</g>
								<g class="note" id="note-0000000541179580" fill="#000000">
									<use xlink:href="#E0A4" x="16784" y="5450" height="720px" width="720px"/>
									<g class="stem" id="stem-0000000994042070">
										<rect x="16990" y="4812" height="616" width="20"/>
									</g>
								</g>
							</g>
							<g class="note" id="note-0000001507655351" fill="#000000">
								<use xlink:href="#E0A3" x="17402" y="5540" height="720px" width="720px"/>
								<g class="stem" id="stem-0000001133847708">
									<rect x="17608" y="4820" height="698" width="20"/>
								</g>
							</g>
						</g>
					</g>
					<g class="barLineAttr" id="bline-0000000443335519">
						<path d="M18838 4460 L18838 5180" stroke="#000000" stroke-width="30"/>
						<path d="M18958 4460 L18958 5180" stroke="#000000" stroke-width="90"/>
					</g>
				</g>
			</g>
			<g class="system" id="system-0000001534453024">
				<g class="sb" id="sb-0000000520334357"/>
				<g class="boundaryEnd section-0000001431336535" id="bdend-0000001629525106"/>
			</g>
		</g>
	</svg>
</svg>
